<svg width="42" height="30" viewBox="0 0 42 30" fill="none" xmlns="http://www.w3.org/2000/svg">
<path d="M32.5625 29.375H10.8438C5.1875 29.375 0.796875 25.2188 0.796875 20.2031C0.796875 16.1562 3.03125 12.8438 6.67188 12.0938C6.9375 7.64062 11.0625 4.64062 15.2188 5.59375C17.3281 2.60938 20.5938 0.640625 24.6406 0.640625C31.4375 0.640625 36.6562 5.84375 36.6719 13.0625C39.8438 14.375 41.7344 17.4844 41.7344 20.875C41.7344 25.6094 37.6719 29.375 32.5625 29.375ZM32.5625 25.3438C35.4062 25.3438 37.625 23.3594 37.625 20.875C37.625 18.2344 35.8125 16.3438 32.9844 15.9219C32.75 15.8906 32.6562 15.7656 32.6875 15.5312C32.7812 14.7344 32.8594 13.7188 32.8125 12.7031C32.5781 8.3125 29.2031 4.67188 24.5938 4.67188C20.9531 4.67188 18.7656 6.59375 17.1719 9.32812C17.0625 9.51562 16.9219 9.5625 16.7188 9.5C13.125 8.4375 9.98438 10.2344 10.25 14.6562C10.2656 14.9062 10.1562 15.0312 9.90625 15.0312C6.90625 15.0312 4.92188 17.1094 4.92188 20.2031C4.92188 22.9844 7.46875 25.3438 10.8594 25.3438H32.5625ZM27.9844 9.04688C29.6562 10.7188 29.6562 13.1406 27.9688 14.8281L25.7344 17.0781C26.0781 16.1562 25.9688 15.2188 25.6719 14.5312L26.625 13.5938C27.5781 12.6562 27.5625 11.3438 26.6094 10.3906C25.6719 9.45312 24.3594 9.42188 23.4062 10.3906L20.5 13.2969C19.5312 14.25 19.5469 15.5469 20.5 16.5C20.8906 16.8906 21.3438 17.0938 21.8281 17.1094C21.6719 17.3125 21.5781 17.4219 21.375 17.6562L20.3438 18.6719C20 18.5312 19.5469 18.2656 19.1406 17.8594C17.4531 16.1719 17.4375 13.75 19.1406 12.0469L22.1719 9.01562C23.8594 7.32812 26.2812 7.32812 27.9844 9.04688ZM15.0156 21.9844C13.3281 20.2812 13.3281 17.8594 15.0156 16.1719L17.25 13.9219C16.9062 14.875 17.0312 15.7969 17.3125 16.4688L16.375 17.4062C15.4375 18.375 15.4219 19.6562 16.375 20.625C17.3125 21.5781 18.6406 21.5781 19.5781 20.625L22.5 17.7188C23.4531 16.75 23.4375 15.4531 22.5 14.5156C22.0781 14.1094 21.625 13.8906 21.1094 13.9375C21.2969 13.7031 21.4688 13.5156 21.625 13.3594L22.6406 12.3438C23.0156 12.4844 23.4531 12.7344 23.8594 13.1562C25.5469 14.8438 25.5625 17.2656 23.8594 18.9531L20.8281 21.9844C19.125 23.6719 16.7031 23.6719 15.0156 21.9844Z" fill="#16C66E"/>
</svg>
