<svg xmlns="http://www.w3.org/2000/svg" width="100" height="56" viewBox="0 0 100 56" fill="none">
  <path d="M54.961 44.8663H5.20056C2.93872 44.8663 1 42.9276 1 40.6657V13.2006C1 10.9387 2.93872 9 5.20056 9H54.7994C57.0613 9 59 10.9387 59 13.2006V40.6657C59 42.9276 57.2228 44.8663 54.961 44.8663ZM5.20056 11.9081C4.55432 11.9081 3.74652 12.5543 3.74652 13.3621V40.8273C3.74652 41.6351 4.39276 42.2813 5.20056 42.2813H54.7994C55.6072 42.2813 56.2535 41.6351 56.2535 40.8273V13.2006C56.2535 12.3928 55.6072 11.7465 54.7994 11.7465C54.961 11.7465 5.20056 11.7465 5.20056 11.7465V11.9081ZM9.40111 36.6267V17.4011H14.8942L20.3872 24.3482L25.8802 17.4011H31.5348V36.4652H26.0418V25.4791L20.5487 32.4262L15.0557 25.4791V36.4652L9.40111 36.6267ZM44.298 36.6267L35.8969 27.4178H41.39V17.5627H46.883V27.2563H52.376L44.298 36.6267Z" fill="#16C66E"/>
</svg>