<svg width="58" height="36" viewBox="0 0 58 36" fill="none" xmlns="http://www.w3.org/2000/svg">
<path id="Vector" d="M53.961 35.8663H4.20056C1.93872 35.8663 0 33.9276 0 31.6657V4.20056C0 1.93872 1.93872 0 4.20056 0H53.7994C56.0613 0 58 1.93872 58 4.20056V31.6657C58 33.9276 56.2228 35.8663 53.961 35.8663ZM4.20056 2.90808C3.55432 2.90808 2.74652 3.55432 2.74652 4.36212V31.8273C2.74652 32.6351 3.39276 33.2813 4.20056 33.2813H53.7994C54.6072 33.2813 55.2535 32.6351 55.2535 31.8273V4.20056C55.2535 3.39276 54.6072 2.74652 53.7994 2.74652C53.961 2.74652 4.20056 2.74652 4.20056 2.74652V2.90808ZM8.40111 27.6267V8.40111H13.8942L19.3872 15.3482L24.8802 8.40111H30.5348V27.4652H25.0418V16.4791L19.5487 23.4262L14.0557 16.4791V27.4652L8.40111 27.6267ZM43.298 27.6267L34.8969 18.4178H40.39V8.56267H45.883V18.2563H51.376L43.298 27.6267Z" fill="#16C66E"/>
</svg>
