<svg width="35" height="77" viewBox="0 0 35 77" fill="none" xmlns="http://www.w3.org/2000/svg">
<path opacity="0.4" fill-rule="evenodd" clip-rule="evenodd" d="M23.1348 3.95909C22.2876 5.8306 23.047 7.27315 23.047 7.27315C23.047 7.27315 23.1702 7.25333 23.3659 7.18209C23.2663 7.30963 23.2184 7.39242 23.2184 7.39242C23.2184 7.39242 24.1759 8.80192 26.1777 8.72271C28.1824 8.63866 30.4754 7.09661 30.4754 7.09661C30.4754 7.09661 28.0853 5.75177 26.0806 5.82612C25.6138 5.84533 25.2092 5.94063 24.863 6.07551C25.0628 5.82432 25.253 5.52168 25.4172 5.1574C26.2617 3.28895 26.1101 0.5 26.1101 0.5C26.1101 0.5 23.982 2.0891 23.1348 3.95909ZM5.4723 23.3443C6.06895 26.5538 8.37911 27.5931 8.37911 27.5931C8.37911 27.5931 8.40337 27.5677 8.44524 27.5177C9.11047 27.6368 11.1699 27.8286 13.2587 26.2085C15.7982 24.2344 17.4112 20.3367 17.4112 20.3367C17.4112 20.3367 13.096 21.0364 10.5565 23.009C10.2148 23.2734 9.92287 23.5474 9.67341 23.8236C9.67289 23.422 9.63624 22.9912 9.55142 22.5326C8.95327 19.3294 6.21587 15.982 6.21587 15.982C6.21587 15.982 4.87565 20.1395 5.4723 23.3443ZM2.52596 34.8735C4.1404 37.9441 6.81581 38.2366 6.81581 38.2366C6.81581 38.2366 6.87582 38.1137 6.95151 37.8889C7.01017 38.1132 7.06047 38.2371 7.06047 38.2371C7.06047 38.2371 9.85031 38.1751 11.7811 35.2387C13.7089 32.3008 14.0281 27.5935 14.0281 27.5935C14.0281 27.5935 9.85031 29.756 7.92873 32.697C7.53245 33.302 7.26255 33.8926 7.08378 34.4493C6.9554 33.891 6.74468 33.2931 6.41813 32.6714C4.80072 29.6009 0.966423 27.1093 0.966423 27.1093C0.966423 27.1093 0.911522 31.8045 2.52596 34.8735ZM8.59109 48.3951C8.59109 48.3951 11.2361 47.7106 12.4062 44.5027C13.5732 41.2963 12.8214 36.784 12.8214 36.784C12.8214 36.784 9.33388 39.7652 8.16535 42.9701C7.88137 43.7507 7.7608 44.4726 7.74094 45.1182C7.48367 44.5028 7.0973 43.8488 6.52355 43.2022C4.26896 40.668 -0.000553131 39.205 -0.000553131 39.205C-0.000553131 39.205 0.987679 43.6658 3.23783 46.203C5.4865 48.7357 8.14348 48.3801 8.14348 48.3801C8.14348 48.3801 8.20388 48.1254 8.22005 47.6984C8.41331 48.1476 8.59109 48.3951 8.59109 48.3951ZM13.2556 59.0397C13.2556 59.0397 15.6082 57.2561 15.4719 53.5174C15.3355 49.7757 12.7617 45.4934 12.7617 45.4934C12.7617 45.4934 10.5106 49.9579 10.6454 53.7027C10.6704 54.4036 10.7776 55.0291 10.9353 55.5829C10.4826 55.2051 9.93592 54.8449 9.27621 54.534C5.94 52.9703 0.964783 53.2546 0.964783 53.2546C0.964783 53.2546 3.80317 57.2158 7.13938 58.781C10.4817 60.3522 13.0597 58.9424 13.0597 58.9424L13.0585 58.9355L13.056 58.9214L13.0533 58.9075L13.0491 58.8864C13.1778 58.9896 13.2556 59.0397 13.2556 59.0397ZM15.8394 63.6367C16.3549 63.7435 16.8265 63.8848 17.257 64.0503C16.9506 63.5218 16.6784 62.9134 16.4685 62.2151C15.2734 58.2096 16.5767 52.7502 16.5767 52.7502C16.5767 52.7502 20.694 56.6715 21.8923 60.6815C22.9212 64.1209 21.4683 66.5072 21.0371 67.1129C21.2071 67.3918 21.2817 67.5673 21.2817 67.5673C21.2817 67.5673 18.8319 69.8634 14.6991 69.0078C10.5571 68.1537 6.284 64.4667 6.284 64.4667C6.284 64.4667 11.6974 62.7781 15.8394 63.6367ZM31.2829 66.0952C33.5034 70.2329 31.7549 73.552 31.7549 73.552C31.7549 73.552 31.7261 73.5487 31.672 73.54C31.0489 74.2863 28.8876 76.4693 24.9316 76.4578C20.1574 76.4547 14.5912 73.2547 14.5912 73.2547C14.5912 73.2547 20.1726 70.0809 24.9438 70.0949C25.5188 70.096 26.0557 70.1434 26.5554 70.2258C26.2791 69.8543 26.0145 69.4419 25.7688 68.9841C23.5452 64.8404 23.7031 58.5543 23.7031 58.5543C23.7031 58.5543 29.0593 61.9515 31.2829 66.0952ZM17.4131 11.8954C17.4131 11.8954 18.9471 13.4895 21.6153 12.979C24.2881 12.4636 27.0891 10.0517 27.0891 10.0517C27.0891 10.0517 23.6431 8.82407 20.9702 9.33303C20.7011 9.3846 20.45 9.45178 20.2162 9.53088C20.2935 9.35036 20.3646 9.15802 20.4279 8.95318C21.2092 6.41653 20.5089 2.91786 20.5089 2.91786C20.5089 2.91786 17.9679 5.35619 17.1837 7.89284C16.6024 9.77285 17.1462 11.1826 17.4667 11.7865C17.4302 11.8559 17.4131 11.8954 17.4131 11.8954ZM12.0932 19.4146C12.0932 19.4146 14.2021 20.5352 16.873 19.1856C19.5408 17.8421 21.7691 14.5345 21.7691 14.5345C21.7691 14.5345 17.7429 14.3824 15.0658 15.7289C14.5883 15.9703 14.1864 16.2433 13.8485 16.5289C13.9527 16.1131 14.0192 15.6487 14.0273 15.1338C14.0737 12.1926 12.1948 8.72522 12.1948 8.72522C12.1948 8.72522 10.2109 12.1296 10.1585 15.0739C10.115 18.0091 12.0285 19.3687 12.0285 19.3687C12.0285 19.3687 12.0589 19.3486 12.1123 19.3076C12.0982 19.3766 12.0932 19.4146 12.0932 19.4146ZM27.5878 4.69843C27.5878 4.69843 28.0507 3.18028 30.0494 2.55038C32.0512 1.91757 34.8301 2.4183 34.8301 2.4183C34.8301 2.4183 32.9367 4.38638 30.9318 5.01919C28.9301 5.64329 27.5878 4.69843 27.5878 4.69843Z" fill="#343434"/>
</svg>
