<svg width="36" height="77" viewBox="0 0 36 77" fill="none" xmlns="http://www.w3.org/2000/svg">
<rect width="36" height="77" fill="#EDEDED"/>
<g id="desktop" clip-path="url(#clip0_0_1)">
<rect width="1440" height="8240" transform="translate(-489 -1478)" fill="#FAFAFA"/>
<g id="Group 1474">
<g id="Group 1475" opacity="0.4">
<path id="Combined Shape Copy" fill-rule="evenodd" clip-rule="evenodd" d="M23.7168 3.95909C22.8696 5.8306 23.629 7.27315 23.629 7.27315C23.629 7.27315 23.7522 7.25333 23.948 7.18208C23.8484 7.30963 23.8004 7.39241 23.8004 7.39241C23.8004 7.39241 24.7579 8.80191 26.7597 8.72272C28.7644 8.63866 31.0574 7.09662 31.0574 7.09662C31.0574 7.09662 28.6673 5.75177 26.6626 5.82613C26.1959 5.84534 25.7912 5.94063 25.4451 6.07552C25.6449 5.82433 25.8351 5.52167 25.9993 5.15739C26.8437 3.28894 26.6921 0.5 26.6921 0.5C26.6921 0.5 24.5641 2.0891 23.7168 3.95909ZM6.05433 23.3443C6.65098 26.5538 8.96114 27.5931 8.96114 27.5931C8.96114 27.5931 8.9854 27.5677 9.02727 27.5177C9.69249 27.6368 11.7519 27.8286 13.8408 26.2085C16.3803 24.2344 17.9932 20.3367 17.9932 20.3367C17.9932 20.3367 13.6781 21.0364 11.1385 23.009C10.7969 23.2734 10.5049 23.5474 10.2554 23.8236C10.2549 23.422 10.2183 22.9912 10.1335 22.5326C9.5353 19.3294 6.7979 15.982 6.7979 15.982C6.7979 15.982 5.45768 20.1395 6.05433 23.3443ZM3.10799 34.8735C4.72243 37.9441 7.39784 38.2366 7.39784 38.2366C7.39784 38.2366 7.45785 38.1137 7.53354 37.8889C7.5922 38.1131 7.64251 38.2371 7.64251 38.2371C7.64251 38.2371 10.4323 38.1751 12.3632 35.2387C14.2909 32.3008 14.6102 27.5935 14.6102 27.5935C14.6102 27.5935 10.4323 29.756 8.51076 32.697C8.11448 33.302 7.84458 33.8926 7.66582 34.4493C7.53743 33.891 7.32671 33.2931 7.00016 32.6714C5.38275 29.6009 1.54845 27.1093 1.54845 27.1093C1.54845 27.1093 1.49355 31.8045 3.10799 34.8735ZM9.17312 48.3951C9.17312 48.3951 11.8182 47.7106 12.9882 44.5027C14.1552 41.2963 13.4034 36.784 13.4034 36.784C13.4034 36.784 9.91591 39.7652 8.74738 42.9701C8.4634 43.7507 8.34283 44.4726 8.32297 45.1182C8.0657 44.5028 7.67933 43.8488 7.10558 43.2022C4.851 40.668 0.581478 39.205 0.581478 39.205C0.581478 39.205 1.56971 43.6658 3.81986 46.203C6.06853 48.7357 8.72551 48.3801 8.72551 48.3801C8.72551 48.3801 8.78591 48.1254 8.80208 47.6984C8.99534 48.1476 9.17312 48.3951 9.17312 48.3951ZM13.8376 59.0397C13.8376 59.0397 16.1902 57.2561 16.0539 53.5174C15.9175 49.7757 13.3437 45.4934 13.3437 45.4934C13.3437 45.4934 11.0926 49.9579 11.2274 53.7027C11.2524 54.4036 11.3596 55.0291 11.5173 55.5829C11.0647 55.2051 10.518 54.8449 9.85824 54.5341C6.52203 52.9703 1.54681 53.2546 1.54681 53.2546C1.54681 53.2546 4.3852 57.2158 7.72141 58.781C11.0637 60.3522 13.6417 58.9424 13.6417 58.9424C13.6417 58.9424 13.6387 58.923 13.6312 58.8864C13.7599 58.9896 13.8376 59.0397 13.8376 59.0397ZM16.4214 63.6367C16.9369 63.7435 17.4085 63.8848 17.8391 64.0503C17.5326 63.5218 17.2604 62.9134 17.0505 62.2151C15.8554 58.2096 17.1588 52.7502 17.1588 52.7502C17.1588 52.7502 21.276 56.6715 22.4743 60.6815C23.5032 64.1209 22.0503 66.5072 21.6191 67.1129C21.7891 67.3918 21.8637 67.5673 21.8637 67.5673C21.8637 67.5673 19.4139 69.8634 15.2811 69.0078C11.1391 68.1537 6.86603 64.4667 6.86603 64.4667C6.86603 64.4667 12.2794 62.7781 16.4214 63.6367ZM31.8649 66.0952C34.0854 70.2329 32.3369 73.552 32.3369 73.552C32.3369 73.552 32.3081 73.5487 32.254 73.54C31.6309 74.2863 29.4697 76.4693 25.5137 76.4578C20.7394 76.4547 15.1732 73.2547 15.1732 73.2547C15.1732 73.2547 20.7546 70.0809 25.5259 70.0949C26.1008 70.096 26.6378 70.1434 27.1374 70.2258C26.8611 69.8543 26.5965 69.4419 26.3508 68.9841C24.1273 64.8404 24.2851 58.5543 24.2851 58.5543C24.2851 58.5543 29.6414 61.9515 31.8649 66.0952ZM17.9952 11.8954C17.9952 11.8954 19.5291 13.4895 22.1973 12.979C24.8702 12.4636 27.6711 10.0517 27.6711 10.0517C27.6711 10.0517 24.2251 8.82407 21.5523 9.33302C21.2831 9.3846 21.0321 9.45178 20.7983 9.53088C20.8755 9.35036 20.9467 9.15802 21.01 8.95319C21.7913 6.41653 21.0909 2.91786 21.0909 2.91786C21.0909 2.91786 18.5499 5.35619 17.7657 7.89284C17.1845 9.77286 17.7283 11.1826 18.0487 11.7865C18.0122 11.8559 17.9952 11.8954 17.9952 11.8954ZM12.6752 19.4146C12.6752 19.4146 14.7841 20.5352 17.455 19.1856C20.1229 17.8421 22.3512 14.5345 22.3512 14.5345C22.3512 14.5345 18.3249 14.3824 15.6479 15.7289C15.1703 15.9702 14.7685 16.2433 14.4305 16.5289C14.5347 16.1131 14.6012 15.6487 14.6093 15.1338C14.6558 12.1926 12.7768 8.72522 12.7768 8.72522C12.7768 8.72522 10.793 12.1297 10.7405 15.0739C10.6971 18.0091 12.6105 19.3687 12.6105 19.3687C12.6105 19.3687 12.6409 19.3486 12.6944 19.3076C12.6802 19.3766 12.6752 19.4146 12.6752 19.4146ZM28.1699 4.69844C28.1699 4.69844 28.6328 3.18028 30.6314 2.55037C32.6332 1.91757 35.4121 2.4183 35.4121 2.4183C35.4121 2.4183 33.5187 4.38638 31.5139 5.0192C29.5121 5.6433 28.1699 4.69844 28.1699 4.69844Z" fill="#343434"/>
</g>
</g>
</g>
<defs>
<clipPath id="clip0_0_1">
<rect width="1440" height="8240" fill="white" transform="translate(-489 -1478)"/>
</clipPath>
</defs>
</svg>
